<?xml version="1.0" encoding="UTF-8"?>
<svg version="1.1" xmlns="http://www.w3.org/2000/svg" width="512" height="512">
<path d="M0 0 C168.96 0 337.92 0 512 0 C512 168.96 512 337.92 512 512 C343.04 512 174.08 512 0 512 C0 343.04 0 174.08 0 0 Z " fill="#FEFEFE" transform="translate(0,0)"/>
<path d="M0 0 C5.21493171 0.01085645 10.42983718 0.01046707 15.64477825 0.00986195 C20.72470316 0.01013556 25.80461163 0.01564569 30.88453102 0.02286339 C33.28394256 0.02600794 35.68335592 0.0280074 38.08276939 0.0287571 C48.96128992 0.03589084 59.82592044 0.06719708 70.69158936 0.64361572 C71.80681363 0.70149749 71.80681363 0.70149749 72.94456768 0.76054859 C77.95440327 1.0668928 77.95440327 1.0668928 80.21185303 2.19561768 C80.21185303 2.85561768 80.21185303 3.51561768 80.21185303 4.19561768 C79.29404053 4.58233643 78.37622803 4.96905518 77.43060303 5.36749268 C68.64814981 9.08735726 68.64814981 9.08735726 60.07904053 13.26983643 C57.25320216 14.67093202 54.32223371 15.81950827 51.38763428 16.97296143 C49.04007667 18.16210972 49.04007667 18.16210972 46.95404053 20.46514893 C43.59960669 23.80524758 39.92929396 26.29474281 36.02435303 28.94561768 C29.28686816 33.60649525 23.16836844 38.56017837 17.21185303 44.19561768 C15.98690919 45.2422469 14.75778741 46.28400793 13.52435303 47.32061768 C9.35315136 50.97685617 5.3677349 54.82206932 1.39935303 58.69561768 C0.74040039 59.32484131 0.08144775 59.95406494 -0.59747314 60.60235596 C-4.64917942 64.60454311 -6.8228372 67.86208833 -8.78814697 73.19561768 C-9.76901001 75.03005618 -10.78679869 76.84552606 -11.85064697 78.63311768 C-12.35724854 79.49807861 -12.8638501 80.36303955 -13.38580322 81.25421143 C-13.84857666 81.89487549 -14.3113501 82.53553955 -14.78814697 83.19561768 C-15.44814697 83.19561768 -16.10814697 83.19561768 -16.78814697 83.19561768 C-16.78814697 83.85561768 -16.78814697 84.51561768 -16.78814697 85.19561768 C-15.9244751 85.31034424 -15.06080322 85.4250708 -14.17095947 85.54327393 C-10.72793342 86.2072293 -7.87784582 87.24775513 -4.66314697 88.63311768 C-3.64994385 89.06495361 -2.63674072 89.49678955 -1.59283447 89.94171143 C-0.6672876 90.35550049 0.25825928 90.76928955 1.21185303 91.19561768 C1.9105249 91.49596924 2.60919678 91.7963208 3.32904053 92.10577393 C5.69565111 93.47565847 7.3112964 95.2363566 9.21185303 97.19561768 C10.65263775 98.34300623 12.11152247 99.46800221 13.58685303 100.57061768 C19.18805583 104.88917272 23.58930357 108.48794311 26.21185303 115.19561768 C27.10514178 116.70189636 28.04400453 118.18199497 29.02435303 119.63311768 C29.50517334 120.35370361 29.98599365 121.07428955 30.48138428 121.81671143 C32.2503275 124.34901582 32.2503275 124.34901582 34.80169678 126.97686768 C37.73048339 130.45008349 38.34356522 133.84354275 38.96185303 138.25811768 C39.13007568 139.29935791 39.13007568 139.29935791 39.30169678 140.3616333 C39.61538569 142.30465933 39.91408835 144.25008765 40.21185303 146.19561768 C40.49222412 147.47565674 40.49222412 147.47565674 40.77825928 148.78155518 C44.10694474 167.31423637 38.05732404 186.9107294 27.72991943 202.2444458 C26.57248894 203.90625018 25.39371415 205.55113662 24.21185303 207.19561768 C23.52349365 208.19721924 22.83513428 209.1988208 22.12591553 210.23077393 C15.9118637 218.62782908 8.0881473 223.57473502 -1.64752197 227.28546143 C-3.95773557 227.99468829 -3.95773557 227.99468829 -4.78814697 230.19561768 C-12.03973982 233.86440773 -19.64209814 234.92858158 -27.60064697 235.80108643 C-30.80336794 236.09108057 -30.80336794 236.09108057 -33.78814697 237.19561768 C-35.27178073 237.28654072 -36.75917317 237.32189491 -38.24559021 237.32260132 C-39.15953552 237.32542114 -40.07348083 237.32824097 -41.01512146 237.33114624 C-42.01682877 237.32912201 -43.01853607 237.32709778 -44.05059814 237.32501221 C-45.10844513 237.32676453 -46.16629211 237.32851685 -47.25619507 237.33032227 C-50.78118502 237.33474695 -54.30612518 237.33179292 -57.83111572 237.32843018 C-60.30933135 237.32910488 -62.78754692 237.33007629 -65.26576233 237.33132935 C-70.49401347 237.33280862 -75.72225187 237.33074788 -80.95050049 237.32598877 C-87.52697298 237.32006907 -94.1034103 237.32358624 -100.67988396 237.32944107 C-130.06410542 237.35148071 -159.41847285 237.1644293 -188.78814697 236.19561768 C-186.32811282 232.50556644 -183.74276951 231.75317112 -179.78814697 230.19561768 C-165.11040193 224.07361803 -152.11878344 215.07518883 -139.50787354 205.48907471 C-137.83384542 204.22998883 -136.1406712 203.00345615 -134.43658447 201.78546143 C-129.13114742 197.94790584 -124.51703243 194.19751842 -120.38189697 189.10968018 C-118.19712477 186.4858116 -115.75060247 184.17623934 -113.26861572 181.83624268 C-111.67089647 180.06568308 -110.82730714 178.32976066 -109.78814697 176.19561768 C-108.12148031 174.52895101 -106.45481364 172.86228434 -104.78814697 171.19561768 C-100.21391892 165.51050567 -97.80653846 160.49408998 -96.78814697 153.19561768 C-97.37982666 153.15823486 -97.97150635 153.12085205 -98.58111572 153.08233643 C-103.44020518 152.67807287 -106.74727533 152.11402497 -110.78814697 149.19561768 C-113.21467156 147.67903981 -115.42037043 146.32767167 -118.11627197 145.35968018 C-121.22267424 144.00630609 -123.43063943 142.2946042 -126.03814697 140.13311768 C-126.90955322 139.42026611 -127.78095947 138.70741455 -128.67877197 137.97296143 C-129.72140289 137.05413741 -130.75698578 136.1272954 -131.78814697 135.19561768 C-132.49979004 134.56550781 -133.21143311 133.93539795 -133.94464111 133.28619385 C-139.92619886 127.70294735 -143.40583929 122.06501511 -146.72564697 114.63311768 C-147.19293213 113.64376221 -147.66021729 112.65440674 -148.1416626 111.6350708 C-151.25926817 104.89442289 -153.78814697 98.72125085 -153.78814697 91.19561768 C-154.44814697 91.19561768 -155.10814697 91.19561768 -155.78814697 91.19561768 C-156.4014948 77.54721317 -155.90494108 65.95105441 -150.78814697 53.19561768 C-150.12814697 53.19561768 -149.46814697 53.19561768 -148.78814697 53.19561768 C-148.53935791 52.3525708 -148.29056885 51.50952393 -148.03424072 50.64093018 C-143.86410391 39.11095943 -135.05784754 25.07294882 -124.26470947 18.70733643 C-122.76634652 18.0626919 -121.24823325 17.46101159 -119.71002197 16.91827393 C-116.97119992 15.8884323 -115.04083321 14.0333354 -112.78814697 12.19561768 C-110.48445962 11.12909575 -108.1479651 10.13140762 -105.78814697 9.19561768 C-104.69502197 8.7135083 -103.60189697 8.23139893 -102.47564697 7.73468018 C-71.78648758 -5.07414271 -32.40930919 -0.08507183 0 0 Z " fill="#1191CD" transform="translate(313.78814697265625,135.80438232421875)"/>
<path d="M0 0 C5.21493171 0.01085645 10.42983718 0.01046707 15.64477825 0.00986195 C20.72470316 0.01013556 25.80461163 0.01564569 30.88453102 0.02286339 C33.28394256 0.02600794 35.68335592 0.0280074 38.08276939 0.0287571 C48.96128992 0.03589084 59.82592044 0.06719708 70.69158936 0.64361572 C71.4350722 0.68220357 72.17855505 0.72079142 72.94456768 0.76054859 C77.95440327 1.0668928 77.95440327 1.0668928 80.21185303 2.19561768 C80.21185303 2.85561768 80.21185303 3.51561768 80.21185303 4.19561768 C79.29404053 4.58233643 78.37622803 4.96905518 77.43060303 5.36749268 C68.64814981 9.08735726 68.64814981 9.08735726 60.07904053 13.26983643 C57.25320216 14.67093202 54.32223371 15.81950827 51.38763428 16.97296143 C49.04007667 18.16210972 49.04007667 18.16210972 46.95404053 20.46514893 C43.59960669 23.80524758 39.92929396 26.29474281 36.02435303 28.94561768 C29.28686816 33.60649525 23.16836844 38.56017837 17.21185303 44.19561768 C15.98690919 45.2422469 14.75778741 46.28400793 13.52435303 47.32061768 C0.71365148 58.48422902 -10.98353848 70.63723768 -19.78814697 85.19561768 C-20.11814697 84.53561768 -20.44814697 83.87561768 -20.78814697 83.19561768 C-21.77814697 83.52561768 -22.76814697 83.85561768 -23.78814697 84.19561768 C-25.17506941 84.29610426 -26.56572166 84.35005078 -27.95611572 84.37139893 C-28.76758057 84.39524658 -29.57904541 84.41909424 -30.4151001 84.44366455 C-32.10235498 84.4861355 -33.78992647 84.51765256 -35.4776001 84.53741455 C-44.52833981 84.8440984 -50.49483099 88.32926705 -56.91314697 94.50811768 C-57.42885254 94.99232178 -57.94455811 95.47652588 -58.47589111 95.97540283 C-61.66423149 99.00581466 -64.67561007 102.11644574 -67.40924072 105.56280518 C-68.78814697 107.19561768 -68.78814697 107.19561768 -71.23736572 109.51983643 C-73.85937247 112.27033355 -75.42320505 114.76781537 -77.16314697 118.13311768 C-77.7535376 119.2700708 -78.34392822 120.40702393 -78.95220947 121.57843018 C-79.56450871 122.78399684 -80.17648286 123.98972865 -80.78814697 125.19561768 C-81.4207104 126.42230865 -82.05352324 127.64887103 -82.68658447 128.87530518 C-86.41583179 136.13674151 -86.41583179 136.13674151 -89.47564697 143.69561768 C-90.88752681 147.46063056 -92.04583089 150.23095164 -94.78814697 153.19561768 C-103.21076742 154.43829938 -108.93579571 150.81350657 -115.78814697 146.19561768 C-116.5641626 145.9094458 -117.34017822 145.62327393 -118.13970947 145.32843018 C-121.24836291 143.99877015 -123.43643438 142.28980048 -126.03814697 140.13311768 C-126.90955322 139.42026611 -127.78095947 138.70741455 -128.67877197 137.97296143 C-129.72140289 137.05413741 -130.75698578 136.1272954 -131.78814697 135.19561768 C-132.49979004 134.56550781 -133.21143311 133.93539795 -133.94464111 133.28619385 C-139.92619886 127.70294735 -143.40583929 122.06501511 -146.72564697 114.63311768 C-147.19293213 113.64376221 -147.66021729 112.65440674 -148.1416626 111.6350708 C-151.25926817 104.89442289 -153.78814697 98.72125085 -153.78814697 91.19561768 C-154.44814697 91.19561768 -155.10814697 91.19561768 -155.78814697 91.19561768 C-156.4014948 77.54721317 -155.90494108 65.95105441 -150.78814697 53.19561768 C-150.12814697 53.19561768 -149.46814697 53.19561768 -148.78814697 53.19561768 C-148.41496338 51.93104736 -148.41496338 51.93104736 -148.03424072 50.64093018 C-143.86410391 39.11095943 -135.05784754 25.07294882 -124.26470947 18.70733643 C-122.76634652 18.0626919 -121.24823325 17.46101159 -119.71002197 16.91827393 C-116.97119992 15.8884323 -115.04083321 14.0333354 -112.78814697 12.19561768 C-110.48445962 11.12909575 -108.1479651 10.13140762 -105.78814697 9.19561768 C-104.69502197 8.7135083 -103.60189697 8.23139893 -102.47564697 7.73468018 C-71.78648758 -5.07414271 -32.40930919 -0.08507183 0 0 Z " fill="#264066" transform="translate(313.78814697265625,135.80438232421875)"/>
<path d="M0 0 C0 3.90870731 -1.40876713 5.82885325 -3.375 9.1875 C-4.00148438 10.27417969 -4.62796875 11.36085937 -5.2734375 12.48046875 C-6.12808594 13.72763672 -6.12808594 13.72763672 -7 15 C-7.66 15 -8.32 15 -9 15 C-9 15.66 -9 16.32 -9 17 C-8.13632812 17.11472656 -7.27265625 17.22945312 -6.3828125 17.34765625 C-2.93978644 18.01161162 -0.08969885 19.05213745 3.125 20.4375 C4.13820313 20.86933594 5.15140625 21.30117187 6.1953125 21.74609375 C7.12085938 22.15988281 8.04640625 22.57367188 9 23 C10.04800781 23.45052734 10.04800781 23.45052734 11.1171875 23.91015625 C13.48379808 25.2800408 15.09944337 27.04073892 17 29 C18.44078472 30.14738856 19.89966945 31.27238453 21.375 32.375 C26.97620281 36.69355505 31.37745055 40.29232543 34 47 C34.89328875 48.50627869 35.83215151 49.98637729 36.8125 51.4375 C37.29332031 52.15808594 37.77414062 52.87867188 38.26953125 53.62109375 C40.03847448 56.15339814 40.03847448 56.15339814 42.58984375 58.78125 C45.51863037 62.25446581 46.13171219 65.64792507 46.75 70.0625 C46.86214844 70.75666016 46.97429687 71.45082031 47.08984375 72.16601562 C47.40353266 74.10904166 47.70223532 76.05446997 48 78 C48.28037109 79.28003906 48.28037109 79.28003906 48.56640625 80.5859375 C50.2024354 89.69464036 49.422049 100.08925182 47 109 C46.34 109.66 45.68 110.32 45 111 C45.01571045 110.19481934 45.0314209 109.38963867 45.04760742 108.56005859 C45.09951132 105.49969992 45.13671888 102.4395694 45.16479492 99.37890625 C45.18685261 97.43213762 45.22501918 95.48557235 45.26367188 93.5390625 C45.3916388 76.818051 42.03195463 61.47129996 31.609375 48.21484375 C30 46 30 46 30 44 C29.34 44 28.68 44 28 44 C26.31267723 42.01739574 24.64633943 40.0167658 23 38 C22.34 37.67 21.68 37.34 21 37 C21 36.34 21 35.68 21 35 C20.44699219 34.73960937 19.89398438 34.47921875 19.32421875 34.2109375 C16.69561622 32.84141349 14.2851304 31.25914823 11.8125 29.625 C4.47514531 24.93182499 -2.49889134 21.85478734 -11 20 C-14.9142577 26.39915163 -18.46142388 32.65450675 -21.1015625 39.68359375 C-22.86597555 44.23271087 -25.10281978 48.51620195 -27.625 52.6875 C-29.06148522 54.95561041 -29.06148522 54.95561041 -29.9375 57.4375 C-31.24795878 60.59801824 -33.06398325 63.18397563 -35 66 C-35.45375 66.825 -35.9075 67.65 -36.375 68.5 C-38.53313107 71.82020165 -41.13803531 74.26523374 -44 77 C-44.99 76.505 -44.99 76.505 -46 76 C-45.01 74.515 -45.01 74.515 -44 73 C-44.63615234 73.68835938 -44.63615234 73.68835938 -45.28515625 74.390625 C-51.45908566 80.849505 -58.14229952 85.53668045 -67.34521484 86.15844727 C-69.87897374 86.19589076 -72.40400231 86.17509197 -74.9375 86.125 C-76.24944336 86.11146484 -76.24944336 86.11146484 -77.58789062 86.09765625 C-79.72538064 86.0742957 -81.86272786 86.03843247 -84 86 C-83.42515591 81.9904625 -82.16628226 79.28064567 -80 75.875 C-78.30329901 73.19127583 -77.00743074 71.02229222 -76 68 C-77.65 70.64 -79.3 73.28 -81 76 C-82 72 -82 72 -80.85546875 69.59765625 C-80.30503906 68.76105469 -79.75460938 67.92445313 -79.1875 67.0625 C-77.0355001 63.75526975 -75.45102674 60.65957479 -74 57 C-66.06923533 40.87769117 -66.06923533 40.87769117 -59.67578125 36.27734375 C-57.66221051 34.7425241 -56.18692132 33.00227174 -54.5625 31.0625 C-48.36533688 23.84397815 -41.29327714 16.68129135 -31.32373047 15.75 C-28.50460756 15.74204621 -25.6931309 15.80295575 -22.875 15.875 C-15.56068238 15.96821722 -15.56068238 15.96821722 -9.19140625 12.8984375 C-7.49238456 10.3328769 -6.24334242 7.80838882 -5 5 C-3.44103563 3.14719941 -1.7939112 1.63082836 0 0 Z " fill="#246ECA" transform="translate(306,204)"/>
<path d="M0 0 C0.66 0 1.32 0 2 0 C2.86844412 8.68444124 -2.35242791 14.76995049 -7.4140625 21.3125 C-7.93742187 21.869375 -8.46078125 22.42625 -9 23 C-9.66 23 -10.32 23 -11 23 C-11.31517578 24.051875 -11.31517578 24.051875 -11.63671875 25.125 C-13.37520511 28.7912635 -15.91758092 31.24160069 -18.8125 34 C-19.59463867 34.76183594 -19.59463867 34.76183594 -20.39257812 35.5390625 C-21.43176711 36.55100683 -22.47447887 37.55934666 -23.52075195 38.56396484 C-24.86070239 39.86477166 -26.16689554 41.2001299 -27.46875 42.5390625 C-30.38984986 45.3790207 -33.47153028 47.88040639 -36.6875 50.375 C-37.30761963 50.85759277 -37.92773926 51.34018555 -38.56665039 51.83740234 C-53.09693319 63.07876776 -68.49578504 72.00666941 -85 80 C-86.33412817 80.66507461 -87.66764952 81.33137124 -89 82 C-58.80763033 83.01663514 -28.62665887 83.18791105 1.58105469 83.18530273 C8.15377206 83.18519939 14.72638555 83.19907703 21.29907799 83.21607494 C26.42064911 83.22718203 31.54219446 83.22922267 36.6637764 83.22869301 C39.09016924 83.22986634 41.5165629 83.2342514 43.94294357 83.24202538 C47.30888196 83.25183998 50.67458505 83.24894609 54.04052734 83.24291992 C55.02223404 83.24853943 56.00394073 83.25415894 57.01539612 83.25994873 C62.2746979 83.23606484 66.95465651 82.76471132 72.02591896 81.3313036 C74.30171285 80.94936451 75.82000404 81.30371795 78 82 C68.37069489 85.56326709 59.09759268 85.2999285 49 85 C49 85.66 49 86.32 49 87 C30.88444302 87.04676563 12.76890176 87.08201119 -5.34670258 87.10362434 C-13.75849935 87.1139274 -22.17025858 87.12796917 -30.58203125 87.15087891 C-37.91558053 87.17084251 -45.24910261 87.18372349 -52.58267832 87.18817699 C-56.46406326 87.19077934 -60.34537039 87.19687574 -64.22673035 87.21146011 C-67.88416121 87.225091 -71.54148261 87.22921157 -75.19893646 87.22621536 C-77.17265727 87.22702312 -79.14636631 87.23775585 -81.12005615 87.24884033 C-87.44017424 87.23422604 -92.95727791 86.89711593 -99 85 C-98 82 -98 82 -95.25 80.5 C-94.1775 80.005 -93.105 79.51 -92 79 C-90.7625 78.2265625 -90.7625 78.2265625 -89.5 77.4375 C-87 76 -87 76 -84.375 75.1875 C-78.03963269 72.95838928 -72.0750223 69.51680939 -66.5625 65.6875 C-64 64 -64 64 -61.9375 63.5625 C-59.71533755 63.08817195 -59.71533755 63.08817195 -57.71484375 60.68359375 C-55.12835769 58.12688019 -52.70778681 56.39975658 -49.625 54.5 C-38.29274765 47.09849201 -28.45740502 37.75265213 -19.07421875 28.046875 C-17 26 -17 26 -15 25 C-14.525625 24.195625 -14.05125 23.39125 -13.5625 22.5625 C-12 20 -12 20 -9 18 C-8.30959426 16.34302621 -7.6469365 14.6744239 -7 13 C-3.65993266 7.61279461 -3.65993266 7.61279461 -1.25 5.375 C0.44844853 3.81641638 0.44844853 3.81641638 0 0 Z " fill="#54E7ED" transform="translate(215,289)"/>
<path d="M0 0 C0.91652344 0.28617187 0.91652344 0.28617187 1.8515625 0.578125 C0.60420683 1.2290509 -0.64645582 1.87364169 -1.8984375 2.515625 C-2.59453125 2.87527344 -3.290625 3.23492187 -4.0078125 3.60546875 C-6.05068183 4.53370682 -7.95959126 5.10979078 -10.1484375 5.578125 C-10.1484375 6.238125 -10.1484375 6.898125 -10.1484375 7.578125 C55.18356894 7.78221744 55.18356894 7.78221744 120.51239014 7.25973511 C123.09653497 7.22224126 125.680726 7.18779687 128.26495361 7.15652466 C131.79537731 7.11198504 135.325321 7.05458105 138.85546875 6.9921875 C139.8541246 6.98063126 140.85278046 6.96907501 141.88169861 6.95716858 C147.11373894 6.84516355 151.83097864 6.31956604 156.87876892 4.90341187 C159.15171161 4.52863449 160.67483002 4.88377566 162.8515625 5.578125 C153.22225739 9.14139209 143.94915518 8.8780535 133.8515625 8.578125 C133.8515625 9.238125 133.8515625 9.898125 133.8515625 10.578125 C115.73600552 10.62489063 97.62046426 10.66013619 79.50485992 10.68174934 C71.09306315 10.6920524 62.68130392 10.70609417 54.26953125 10.72900391 C46.93598197 10.74896751 39.60245989 10.76184849 32.26888418 10.76630199 C28.38749924 10.76890434 24.50619211 10.77500074 20.62483215 10.78958511 C16.96740129 10.803216 13.31007989 10.80733657 9.65262604 10.80434036 C7.67890523 10.80514812 5.70519619 10.81588085 3.73150635 10.82696533 C-2.58861174 10.81235104 -8.10571541 10.47524093 -14.1484375 8.578125 C-13.1484375 5.578125 -13.1484375 5.578125 -10.3984375 4.078125 C-9.3259375 3.583125 -8.2534375 3.088125 -7.1484375 2.578125 C-6.2821875 2.000625 -5.4159375 1.423125 -4.5234375 0.828125 C-2.1484375 -0.421875 -2.1484375 -0.421875 0 0 Z " fill="#75EAF0" transform="translate(130.1484375,365.421875)"/>
<path d="M0 0 C0 3.90870731 -1.40876713 5.82885325 -3.375 9.1875 C-4.31472656 10.81751953 -4.31472656 10.81751953 -5.2734375 12.48046875 C-5.84320313 13.31191406 -6.41296875 14.14335937 -7 15 C-7.66 15 -8.32 15 -9 15 C-9 15.66 -9 16.32 -9 17 C-8.13632812 17.11472656 -7.27265625 17.22945312 -6.3828125 17.34765625 C-2.93978644 18.01161162 -0.08969885 19.05213745 3.125 20.4375 C4.13820313 20.86933594 5.15140625 21.30117187 6.1953125 21.74609375 C7.12085938 22.15988281 8.04640625 22.57367188 9 23 C9.69867188 23.30035156 10.39734375 23.60070312 11.1171875 23.91015625 C13.48379808 25.2800408 15.09944337 27.04073892 17 29 C18.44078472 30.14738856 19.89966945 31.27238453 21.375 32.375 C26.97620281 36.69355505 31.37745055 40.29232543 34 47 C34.89328875 48.50627869 35.83215151 49.98637729 36.8125 51.4375 C37.29332031 52.15808594 37.77414062 52.87867188 38.26953125 53.62109375 C40.03847448 56.15339814 40.03847448 56.15339814 42.58984375 58.78125 C45.51863037 62.25446581 46.13171219 65.64792507 46.75 70.0625 C46.86214844 70.75666016 46.97429687 71.45082031 47.08984375 72.16601562 C47.40353266 74.10904166 47.70223532 76.05446997 48 78 C48.18691406 78.85335937 48.37382812 79.70671875 48.56640625 80.5859375 C50.2024354 89.69464036 49.422049 100.08925182 47 109 C46.34 109.66 45.68 110.32 45 111 C45.02356567 109.792229 45.02356567 109.792229 45.04760742 108.56005859 C45.09951132 105.49969992 45.13671888 102.4395694 45.16479492 99.37890625 C45.18685261 97.43213762 45.22501918 95.48557235 45.26367188 93.5390625 C45.3916388 76.818051 42.03195463 61.47129996 31.609375 48.21484375 C30 46 30 46 30 44 C29.34 44 28.68 44 28 44 C26.31267723 42.01739574 24.64633943 40.0167658 23 38 C22.01 37.505 22.01 37.505 21 37 C21 36.34 21 35.68 21 35 C20.17048828 34.60941406 20.17048828 34.60941406 19.32421875 34.2109375 C16.69561622 32.84141349 14.2851304 31.25914823 11.8125 29.625 C4.25219594 24.78560218 -3.45685012 21.66594748 -12 19 C-11.54866815 13.71862557 -9.79241132 10.83729007 -6.5625 6.6875 C-6.15451172 6.15060547 -5.74652344 5.61371094 -5.32617188 5.06054688 C-2.30532181 1.15266091 -2.30532181 1.15266091 0 0 Z " fill="#778094" transform="translate(306,204)"/>
<path d="M0 0 C5.21493171 0.01085645 10.42983718 0.01046707 15.64477825 0.00986195 C20.72470316 0.01013556 25.80461163 0.01564569 30.88453102 0.02286339 C33.28394256 0.02600794 35.68335592 0.0280074 38.08276939 0.0287571 C48.96128992 0.03589084 59.82592044 0.06719708 70.69158936 0.64361572 C71.4350722 0.68220357 72.17855505 0.72079142 72.94456768 0.76054859 C77.95440327 1.0668928 77.95440327 1.0668928 80.21185303 2.19561768 C80.21185303 2.85561768 80.21185303 3.51561768 80.21185303 4.19561768 C78.23185303 4.85561768 76.25185303 5.51561768 74.21185303 6.19561768 C74.87185303 4.87561768 75.53185303 3.55561768 76.21185303 2.19561768 C30.01185303 2.19561768 -16.18814697 2.19561768 -63.78814697 2.19561768 C-63.78814697 2.85561768 -63.78814697 3.51561768 -63.78814697 4.19561768 C-64.91349854 4.23300049 -66.0388501 4.2703833 -67.19830322 4.30889893 C-76.18575572 4.67111364 -84.66271415 5.50304016 -93.45611572 7.47686768 C-96.88769106 8.21709026 -100.30892732 8.73584786 -103.78814697 9.19561768 C-78.03746136 -7.97150607 -29.03200669 -0.07620668 0 0 Z " fill="#485E7E" transform="translate(313.78814697265625,135.80438232421875)"/>
<path d="M0 0 C0.495 0.99 0.495 0.99 1 2 C-0.96337721 5.89242964 -3.51724339 9.42337804 -6 13 C-6.65355469 13.95390625 -7.30710937 14.9078125 -7.98046875 15.890625 C-14.28172163 24.35534744 -22.01680918 29.33837399 -31.859375 33.08984375 C-34.1695886 33.79907061 -34.1695886 33.79907061 -35 36 C-42.25159285 39.66879006 -49.85395117 40.73296391 -57.8125 41.60546875 C-61.01522096 41.89546289 -61.01522096 41.89546289 -64 43 C-65.79470387 43.08813433 -67.59254239 43.1176372 -69.3894043 43.11352539 C-70.49031906 43.11344986 -71.59123383 43.11337433 -72.72550964 43.11329651 C-73.91308365 43.10813522 -75.10065765 43.10297394 -76.32421875 43.09765625 C-77.54075638 43.0962413 -78.75729401 43.09482635 -80.01069641 43.09336853 C-83.9029891 43.08776312 -87.79522464 43.07520967 -91.6875 43.0625 C-94.32356688 43.0574857 -96.95963466 43.05292267 -99.59570312 43.04882812 C-106.06382164 43.03779193 -112.53190674 43.0210485 -119 43 C-119.33 42.34 -119.66 41.68 -120 41 C-118.92854736 41.01047363 -117.85709473 41.02094727 -116.75317383 41.03173828 C-83.90160864 41.53032329 -83.90160864 41.53032329 -51.375 37.44140625 C-47.28220849 36.68073941 -43.14578931 36.34173534 -39 36 C-38.67 35.01 -38.34 34.02 -38 33 C-35.69921875 31.67578125 -35.69921875 31.67578125 -32.6875 30.3125 C-19.96376014 24.31679867 -19.96376014 24.31679867 -11 14 C-9.33333333 12.33333333 -7.66666667 10.66666667 -6 9 C-5.67 8.01 -5.34 7.02 -5 6 C-4.34 5.67 -3.68 5.34 -3 5 C-2.835 4.34 -2.67 3.68 -2.5 3 C-2.335 2.34 -2.17 1.68 -2 1 C-1.34 0.67 -0.68 0.34 0 0 Z " fill="#4FC7EE" transform="translate(344,330)"/>
<path d="M0 0 C0.91652344 0.28617187 0.91652344 0.28617187 1.8515625 0.578125 C0.60420683 1.2290509 -0.64645582 1.87364169 -1.8984375 2.515625 C-2.59453125 2.87527344 -3.290625 3.23492187 -4.0078125 3.60546875 C-6.05068183 4.53370682 -7.95959126 5.10979078 -10.1484375 5.578125 C-10.1484375 6.238125 -10.1484375 6.898125 -10.1484375 7.578125 C7.38500688 8.44785589 24.8922478 8.77783682 42.4453125 8.89453125 C45.10144392 8.91516887 47.75757092 8.93612723 50.41369629 8.95750427 C56.6177531 9.00675072 62.82183206 9.05193188 69.02593088 9.09552664 C76.10739395 9.14549382 83.18881832 9.20018465 90.27024364 9.25520623 C104.79731313 9.36797691 119.32442116 9.47503022 133.8515625 9.578125 C133.8515625 9.908125 133.8515625 10.238125 133.8515625 10.578125 C115.73600552 10.62489063 97.62046426 10.66013619 79.50485992 10.68174934 C71.09306315 10.6920524 62.68130392 10.70609417 54.26953125 10.72900391 C46.93598197 10.74896751 39.60245989 10.76184849 32.26888418 10.76630199 C28.38749924 10.76890434 24.50619211 10.77500074 20.62483215 10.78958511 C16.96740129 10.803216 13.31007989 10.80733657 9.65262604 10.80434036 C7.67890523 10.80514812 5.70519619 10.81588085 3.73150635 10.82696533 C-2.58861174 10.81235104 -8.10571541 10.47524093 -14.1484375 8.578125 C-13.1484375 5.578125 -13.1484375 5.578125 -10.3984375 4.078125 C-9.3259375 3.583125 -8.2534375 3.088125 -7.1484375 2.578125 C-6.2821875 2.000625 -5.4159375 1.423125 -4.5234375 0.828125 C-2.1484375 -0.421875 -2.1484375 -0.421875 0 0 Z " fill="#B8F6F7" transform="translate(130.1484375,365.421875)"/>
<path d="M0 0 C0.66 0.33 1.32 0.66 2 1 C-4 4 -10 7 -16 10 C14.36 10.66 44.72 11.32 76 12 C76 12.33 76 12.66 76 13 C64.10831808 13.02317892 52.21664155 13.04094343 40.32494164 13.05181217 C34.80304542 13.05702884 29.28116466 13.06410444 23.75927734 13.07543945 C18.42951938 13.0863115 13.09977629 13.09228601 7.77000809 13.09487724 C5.73747143 13.0967237 3.70493557 13.10032934 1.67240524 13.10573006 C-1.17625939 13.11299774 -4.02486273 13.11398852 -6.87353516 13.11352539 C-7.71223145 13.11712067 -8.55092773 13.12071594 -9.41503906 13.12442017 C-13.72482839 13.11684745 -17.75521191 12.86116206 -22 12 C-22 11.34 -22 10.68 -22 10 C-16.95562373 7.37692434 -11.82966784 4.97531011 -6.625 2.6875 C-4.81902344 1.88892578 -4.81902344 1.88892578 -2.9765625 1.07421875 C-1.99429688 0.71972656 -1.01203125 0.36523438 0 0 Z " fill="#40E9EA" transform="translate(142,361)"/>
<path d="M0 0 C0.33 0 0.66 0 1 0 C1.02693575 2.12493141 1.04636628 4.24995912 1.0625 6.375 C1.07410156 7.55835938 1.08570313 8.74171875 1.09765625 9.9609375 C1 13 1 13 0 15 C-0.15469367 17.17674783 -0.25002106 19.3578348 -0.31640625 21.5390625 C-0.35830078 22.84101563 -0.40019531 24.14296875 -0.44335938 25.484375 C-0.48317299 26.86458045 -0.52288522 28.24478883 -0.5625 29.625 C-0.60569407 31.01303415 -0.64930865 32.40105528 -0.69335938 33.7890625 C-0.79972 37.19260256 -0.90174714 40.59621778 -1 44 C-0.34 44 0.32 44 1 44 C1.36552803 45.41377782 1.71695495 46.83120576 2.0625 48.25 C2.25972656 49.03890625 2.45695313 49.8278125 2.66015625 50.640625 C3.01497267 53.10394822 2.76877544 54.65604132 2 57 C-0.87940913 50.5849443 -2.5464821 45.02952752 -3 38 C-3.66 38 -4.32 38 -5 38 C-5.61334782 24.35159549 -5.11679411 12.75543673 0 0 Z " fill="#3A5274" transform="translate(163,189)"/>
<path d="M0 0 C0.66 0 1.32 0 2 0 C2.86844412 8.68444124 -2.35242791 14.76995049 -7.4140625 21.3125 C-7.93742187 21.869375 -8.46078125 22.42625 -9 23 C-9.66 23 -10.32 23 -11 23 C-11 23.66 -11 24.32 -11 25 C-12.58203125 26.33984375 -12.58203125 26.33984375 -14.8125 27.9375 C-18.65618213 30.83078811 -22.01718973 33.93022486 -25.375 37.375 C-34.8045496 47.0120458 -46.14274681 57.34801203 -59 62 C-56.0107234 58.59840938 -53.01537497 56.32494838 -49.125 54 C-37.85861912 47.01545121 -28.25084695 37.53899266 -19.07421875 28.046875 C-17 26 -17 26 -15 25 C-14.525625 24.195625 -14.05125 23.39125 -13.5625 22.5625 C-12 20 -12 20 -9 18 C-8.30959426 16.34302621 -7.6469365 14.6744239 -7 13 C-3.65993266 7.61279461 -3.65993266 7.61279461 -1.25 5.375 C0.44844853 3.81641638 0.44844853 3.81641638 0 0 Z " fill="#A3E8F6" transform="translate(215,289)"/>
<path d="M0 0 C-1.47778411 0.46277164 -2.95733215 0.91991034 -4.4375 1.375 C-5.26121094 1.63023437 -6.08492188 1.88546875 -6.93359375 2.1484375 C-7.94550781 2.42945313 -8.95742188 2.71046875 -10 3 C-10.59872925 3.169552 -11.1974585 3.339104 -11.81433105 3.51379395 C-18.53005379 5.22390576 -25.0100369 5.25689523 -31.91015625 5.1953125 C-33.72222816 5.19106766 -33.72222816 5.19106766 -35.57090759 5.18673706 C-39.40154228 5.17560767 -43.23193685 5.15051623 -47.0625 5.125 C-49.67122056 5.11496085 -52.27994482 5.10583664 -54.88867188 5.09765625 C-61.2591955 5.07569205 -67.62958058 5.04228695 -74 5 C-74.33 4.34 -74.66 3.68 -75 3 C-73.92854736 3.01047363 -72.85709473 3.02094727 -71.75317383 3.03173828 C-38.70743065 3.70414432 -38.70743065 3.70414432 -6.05859375 -0.73046875 C-3.76814846 -1.03035627 -2.18535102 -0.69871767 0 0 Z " fill="#34DBEA" transform="translate(299,368)"/>
<path d="M0 0 C1.99413949 0.0050312 3.98828022 0.00959121 5.98242188 0.01367188 C10.80081284 0.02453499 15.61914207 0.04170778 20.4375 0.0625 C20.4375 0.3925 20.4375 0.7225 20.4375 1.0625 C6.9075 1.0625 -6.6225 1.0625 -20.5625 1.0625 C-20.5625 1.7225 -20.5625 2.3825 -20.5625 3.0625 C-21.68785156 3.09988281 -22.81320313 3.13726562 -23.97265625 3.17578125 C-32.96010875 3.53799596 -41.43706718 4.36992249 -50.23046875 6.34375 C-53.66204409 7.08397258 -57.08328035 7.60273019 -60.5625 8.0625 C-57.02587661 5.70475107 -53.47530468 4.65906318 -49.4375 3.5 C-48.73496094 3.27892578 -48.03242188 3.05785156 -47.30859375 2.83007812 C-32.29594077 -1.47597745 -15.45387668 -0.06875308 0 0 Z " fill="#344C70" transform="translate(270.5625,136.9375)"/>
<path d="M0 0 C0 3.90870731 -1.40876713 5.82885325 -3.375 9.1875 C-4.31472656 10.81751953 -4.31472656 10.81751953 -5.2734375 12.48046875 C-5.84320313 13.31191406 -6.41296875 14.14335937 -7 15 C-7.66 15 -8.32 15 -9 15 C-9 15.66 -9 16.32 -9 17 C-7.576875 17.2165625 -7.576875 17.2165625 -6.125 17.4375 C-3 18 -3 18 -1 19 C-1 19.66 -1 20.32 -1 21 C-0.154375 21.2475 0.69125 21.495 1.5625 21.75 C5.38427474 23.13973627 8.51868063 24.91120838 12 27 C11.34 27.33 10.68 27.66 10 28 C7.94502165 27.1626774 5.92919007 26.22837407 3.9375 25.25 C-1.31351891 22.74117985 -6.43895494 20.69659002 -12 19 C-11.54866815 13.71862557 -9.79241132 10.83729007 -6.5625 6.6875 C-6.15451172 6.15060547 -5.74652344 5.61371094 -5.32617188 5.06054688 C-2.30532181 1.15266091 -2.30532181 1.15266091 0 0 Z " fill="#4E5C78" transform="translate(306,204)"/>
<path d="M0 0 C0.66 0.33 1.32 0.66 2 1 C-11.37443917 15.46782398 -11.37443917 15.46782398 -18.0625 22.25 C-18.89910156 23.10078125 -19.73570312 23.9515625 -20.59765625 24.828125 C-22.94948107 26.9543276 -25.23979313 28.45899781 -28 30 C-28.99 30.66 -29.98 31.32 -31 32 C-29.49089988 28.45879942 -27.42880686 26.18395635 -24.7109375 23.48046875 C-23.42123047 22.19366211 -23.42123047 22.19366211 -22.10546875 20.88085938 C-20.75388672 19.54764648 -20.75388672 19.54764648 -19.375 18.1875 C-18.49714844 17.31029297 -17.61929687 16.43308594 -16.71484375 15.52929688 C-11.6353186 10.48373586 -6.43543215 5.65779129 -1 1 C-0.67 0.67 -0.34 0.34 0 0 Z " fill="#D2D8E0" transform="translate(338,172)"/>
<path d="M0 0 C0 4.0642084 -1.5934525 5.36454531 -4.23828125 8.29296875 C-11.91019753 15.72673242 -23.65661124 17.92817091 -34 18 C-34.66 17.67 -35.32 17.34 -36 17 C-38.3329866 16.95977609 -40.66706666 16.95679753 -43 17 C-42.67 15.35 -42.34 13.7 -42 12 C-41.67 12.99 -41.34 13.98 -41 15 C-24.22621805 14.65235685 -13.27931064 13.45617314 -1 1 C-0.67 0.67 -0.34 0.34 0 0 Z " fill="#0294EE" transform="translate(263,275)"/>
<path d="M0 0 C6.17728199 8.05732433 5.18101757 17.79764225 5.1875 27.625 C5.19974609 28.60984375 5.21199219 29.5946875 5.22460938 30.609375 C5.23625787 36.43362402 4.67734629 41.41768548 3 47 C2.34 47 1.68 47 1 47 C0.80664062 47.69867188 0.61328125 48.39734375 0.4140625 49.1171875 C0.15367187 50.02726562 -0.10671875 50.93734375 -0.375 51.875 C-0.63023437 52.77992188 -0.88546875 53.68484375 -1.1484375 54.6171875 C-2 57 -2 57 -4 59 C-3.38666188 54.4139036 -2.15296076 50.43999639 -0.5 46.125 C1.36853585 40.96633329 2.85205636 36.47391477 3 31 C3.05027344 29.96488281 3.10054688 28.92976563 3.15234375 27.86328125 C3.3563801 20.44451962 2.58611283 13.90769669 0.65625 6.7421875 C0 4 0 4 0 0 Z " fill="#B9D1ED" transform="translate(351,270)"/>
<path d="M0 0 C0.66 0.33 1.32 0.66 2 1 C1.54109375 1.75023437 1.0821875 2.50046875 0.609375 3.2734375 C-2.79568959 8.95331414 -5.77328217 14.48479612 -8.1015625 20.68359375 C-10.18873953 26.06488063 -12.94423386 31.11077418 -16 36 C-17.62987333 31.11038002 -15.11656343 27.52299214 -13 23 C-2.90900383 2.90900383 -2.90900383 2.90900383 0 0 Z " fill="#314873" transform="translate(293,223)"/>
<path d="M0 0 C8.58 0 17.16 0 26 0 C25 4 25 4 21.9375 6.125 C16.61308775 8.9129366 10.87044458 9.89929164 5 11 C7.26053899 8.47138427 9.39900064 7.16143472 12.5 5.8125 C13.2734375 5.46832031 14.046875 5.12414062 14.84375 4.76953125 C17 4 17 4 20 4 C20 3.34 20 2.68 20 2 C13.4 1.67 6.8 1.34 0 1 C0 0.67 0 0.34 0 0 Z " fill="#E3E6EB" transform="translate(374,136)"/>
<path d="M0 0 C0.33 0 0.66 0 1 0 C1 10.56 1 21.12 1 32 C0.67 30.68 0.34 29.36 0 28 C-0.66 28 -1.32 28 -2 28 C-2.05841253 24.45840343 -2.09373452 20.91693207 -2.125 17.375 C-2.14175781 16.37597656 -2.15851563 15.37695312 -2.17578125 14.34765625 C-2.21014246 9.15911291 -2.10254937 4.85076351 0 0 Z " fill="#8997AC" transform="translate(160,199)"/>
<path d="M0 0 C0.66 0 1.32 0 2 0 C2.86844412 8.68444124 -2.35242791 14.76995049 -7.4140625 21.3125 C-7.93742188 21.869375 -8.46078125 22.42625 -9 23 C-9.66 23 -10.32 23 -11 23 C-11.33 23.66 -11.66 24.32 -12 25 C-10.45809899 17.99135904 -6.51052808 10.25977608 -1.25 5.375 C0.44844853 3.81641638 0.44844853 3.81641638 0 0 Z " fill="#77C3ED" transform="translate(215,289)"/>
<path d="M0 0 C-0.52207031 0.36609375 -1.04414063 0.7321875 -1.58203125 1.109375 C-8.6384104 6.29970642 -14.24791244 12.4522966 -20 19 C-20 13.17327203 -16.42369465 8.80824028 -12.6796875 4.6171875 C-8.9232929 1.00056572 -5.278597 -1.75184879 0 0 Z " fill="#2B4E84" transform="translate(265,224)"/>
<path d="M0 0 C0 0.66 0 1.32 0 2 C-1.6037331 2.64690922 -3.20800306 3.29248764 -4.8125 3.9375 C-5.70582031 4.29714844 -6.59914063 4.65679687 -7.51953125 5.02734375 C-9.3270909 5.73613486 -11.15807409 6.3860247 -13 7 C-13 7.66 -13 8.32 -13 9 C-14.609375 10.54296875 -14.609375 10.54296875 -16.75 12.1875 C-17.44609375 12.73792969 -18.1421875 13.28835937 -18.859375 13.85546875 C-21 15 -21 15 -23.265625 14.67578125 C-23.83796875 14.45277344 -24.4103125 14.22976562 -25 14 C-19.25 9 -19.25 9 -17 9 C-16.67 8.01 -16.34 7.02 -16 6 C-13.85546875 4.6484375 -13.85546875 4.6484375 -11.1875 3.375 C-10.31480469 2.94960937 -9.44210937 2.52421875 -8.54296875 2.0859375 C-5.64798745 0.8496782 -3.15386373 0 0 0 Z " fill="#7F8FA5" transform="translate(379,147)"/>
<path d="M0 0 C0.91652344 0.28617187 0.91652344 0.28617187 1.8515625 0.578125 C0.60420683 1.2290509 -0.64645582 1.87364169 -1.8984375 2.515625 C-2.59453125 2.87527344 -3.290625 3.23492187 -4.0078125 3.60546875 C-6.05068183 4.53370682 -7.95959126 5.10979078 -10.1484375 5.578125 C-10.1484375 6.238125 -10.1484375 6.898125 -10.1484375 7.578125 C-2.2284375 7.908125 5.6915625 8.238125 13.8515625 8.578125 C13.8515625 8.908125 13.8515625 9.238125 13.8515625 9.578125 C10.30991335 9.6073317 6.76829553 9.62499314 3.2265625 9.640625 C1.72802734 9.65319336 1.72802734 9.65319336 0.19921875 9.66601562 C-4.69864025 9.6822337 -9.33499949 9.62131037 -14.1484375 8.578125 C-13.1484375 5.578125 -13.1484375 5.578125 -10.3984375 4.078125 C-9.3259375 3.583125 -8.2534375 3.088125 -7.1484375 2.578125 C-6.2821875 2.000625 -5.4159375 1.423125 -4.5234375 0.828125 C-2.1484375 -0.421875 -2.1484375 -0.421875 0 0 Z " fill="#9FF4F4" transform="translate(130.1484375,365.421875)"/>
<path d="M0 0 C0 3 0 3 -2.44921875 5.7421875 C-3.5211532 6.79414802 -4.60095717 7.83813498 -5.6875 8.875 C-6.48317383 9.65037109 -6.48317383 9.65037109 -7.29492188 10.44140625 C-8.35000981 11.46930787 -9.409711 12.49249691 -10.47412109 13.51074219 C-11.92578623 14.92756736 -13.31847208 16.40408715 -14.70703125 17.8828125 C-17 20 -17 20 -20 20 C-5.68181818 3.86363636 -5.68181818 3.86363636 0 0 Z " fill="#29C6EB" transform="translate(202,314)"/>
<path d="M0 0 C0.33 0 0.66 0 1 0 C3.31029208 9.88805008 2.65680479 21.22558239 0 31 C-0.66 31.66 -1.32 32.32 -2 33 C-1.34 22.11 -0.68 11.22 0 0 Z " fill="#7195CC" transform="translate(353,282)"/>
<path d="M0 0 C4.37805607 3.65937141 4.39429382 8.59530244 5 14 C5.20438573 18.06883819 5.19291845 22.1150051 5.125 26.1875 C5.11597656 27.23486328 5.10695313 28.28222656 5.09765625 29.36132812 C5.07440075 31.90780514 5.04172569 34.45377031 5 37 C4.67 37 4.34 37 4 37 C3.92483154 36.17145508 3.92483154 36.17145508 3.84814453 35.32617188 C2.76973424 23.51990234 1.56259878 11.75273762 0 0 Z " fill="#617BAA" transform="translate(348,263)"/>
<path d="M0 0 C3 1 3 1 4.69140625 4.24609375 C5.31854826 5.64168659 5.94203289 7.03892679 6.5625 8.4375 C10.18007696 16.19242073 14.44282498 21.41027703 21 27 C16.37665889 27 14.44467888 24.05898335 11.2800293 20.91430664 C6.44153167 15.83978474 0 7.22267448 0 0 Z " fill="#7E8DA4" transform="translate(166,246)"/>
<path d="M0 0 C-3.448297 1.92899783 -6.94028796 2.86850402 -10.75 3.875 C-14.96247622 5.03540145 -18.78673034 6.21955673 -22.625 8.3125 C-26 10 -26 10 -28.2109375 9.60546875 C-29.09652344 9.30576172 -29.09652344 9.30576172 -30 9 C-19.82510049 3.68012868 -11.61684029 -0.55318287 0 0 Z " fill="#C1C8D3" transform="translate(231,138)"/>
<path d="M0 0 C-11.86394457 4.17337873 -23.53082733 4.1660097 -36 4 C-36 3.67 -36 3.34 -36 3 C-35.13217896 2.92483154 -35.13217896 2.92483154 -34.24682617 2.84814453 C-20.06196049 1.70247134 -20.06196049 1.70247134 -6.05859375 -0.73046875 C-3.76814846 -1.03035627 -2.18535102 -0.69871767 0 0 Z " fill="#26CEEA" transform="translate(299,368)"/>
<path d="M0 0 C0 3.66983251 -1.36198781 4.98337296 -3.5 7.83203125 C-5.8325258 11.20325994 -7.67155266 14.82104792 -9.5703125 18.44921875 C-10.89091345 20.8053729 -12.32602034 22.88523871 -14 25 C-13.44904471 19.76592476 -11.71482575 15.92405341 -9.25 11.375 C-8.74726563 10.39273438 -8.74726563 10.39273438 -8.234375 9.390625 C-6.05035402 5.30385847 -3.89408881 2.68229194 0 0 Z " fill="#9AA6B8" transform="translate(178,164)"/>
<path d="M0 0 C0 3.90870731 -1.40876713 5.82885325 -3.375 9.1875 C-4.31472656 10.81751953 -4.31472656 10.81751953 -5.2734375 12.48046875 C-5.84320313 13.31191406 -6.41296875 14.14335937 -7 15 C-7.66 15 -8.32 15 -9 15 C-9 15.66 -9 16.32 -9 17 C-8.05125 17.12375 -7.1025 17.2475 -6.125 17.375 C-3 18 -3 18 -1 20 C-4.12290635 19.51421457 -6.99580359 19.0013988 -10 18 C-9.00225971 11.41491412 -6.49047603 5.92503822 -2 1 C-1.34 0.67 -0.68 0.34 0 0 Z " fill="#A5ADBC" transform="translate(306,204)"/>
<path d="M0 0 C0 0.33 0 0.66 0 1 C-0.69480469 1.01417969 -1.38960937 1.02835938 -2.10546875 1.04296875 C-10.67666473 1.4449133 -18.55946029 3.16781483 -26.83862305 5.36010742 C-28.14246948 5.69619019 -28.14246948 5.69619019 -29.47265625 6.0390625 C-30.24875244 6.24740723 -31.02484863 6.45575195 -31.82446289 6.67041016 C-34.19547666 7.02961435 -35.73787005 6.73785385 -38 6 C-25.47331139 0.69289147 -13.46219098 -0.59980059 0 0 Z " fill="#5F728E" transform="translate(248,138)"/>
<path d="M0 0 C-3.22451177 2.98267339 -5.72441243 5.06918923 -9.9375 6.375 C-14.79226404 7.97454653 -17.69286453 11.22779861 -21 15 C-21 11.44132577 -20.54649364 11.11457312 -18.125 8.6875 C-6.43013228 -2.48336143 -6.43013228 -2.48336143 0 0 Z " fill="#9EAABA" transform="translate(201,149)"/>
<path d="M0 0 C0 4.05964085 -1.59216328 5.35273678 -4.21875 8.2890625 C-8.04936656 11.96847051 -12.93504612 14.4523752 -18 16 C-18.99 15.67 -19.98 15.34 -21 15 C-20.34 15 -19.68 15 -19 15 C-19 14.34 -19 13.68 -19 13 C-17.88625 12.690625 -16.7725 12.38125 -15.625 12.0625 C-9.26259554 9.72923897 -4.70941271 4.70941271 0 0 Z " fill="#0A87EA" transform="translate(263,275)"/>
<path d="M0 0 C0.66 0.33 1.32 0.66 2 1 C-2.22693086 7.73177878 -8.49240136 9.94129969 -16 12 C-16.66 11.67 -17.32 11.34 -18 11 C-17.20335937 10.54109375 -16.40671875 10.0821875 -15.5859375 9.609375 C-10.28881751 6.54194299 -5.02910329 3.49243284 0 0 Z " fill="#83F1F1" transform="translate(151,353)"/>
<path d="M0 0 C0 3.04304263 -0.36627259 4.11719872 -1.6796875 6.7578125 C-2.03160156 7.46550781 -2.38351563 8.17320312 -2.74609375 8.90234375 C-3.11863281 9.63582031 -3.49117187 10.36929688 -3.875 11.125 C-4.42220703 12.23681641 -4.42220703 12.23681641 -4.98046875 13.37109375 C-7.7466804 18.8733402 -7.7466804 18.8733402 -10 20 C-10.66 20.99 -11.32 21.98 -12 23 C-11.43458046 17.95090275 -9.05771283 14.12738291 -6.5625 9.8125 C-6.15451172 9.08869141 -5.74652344 8.36488281 -5.32617188 7.61914062 C-2.28376962 2.28376962 -2.28376962 2.28376962 0 0 Z " fill="#2259A4" transform="translate(243,243)"/>
<path d="M0 0 C7.92 0 15.84 0 24 0 C23.67 1.32 23.34 2.64 23 4 C20.69 4.66 18.38 5.32 16 6 C16.33 5.34 16.66 4.68 17 4 C17.99 4 18.98 4 20 4 C20 3.34 20 2.68 20 2 C13.4 1.67 6.8 1.34 0 1 C0 0.67 0 0.34 0 0 Z " fill="#9BA6B8" transform="translate(374,136)"/>
<path d="M0 0 C0.33 0 0.66 0 1 0 C1.62403698 18.2357473 1.62403698 18.2357473 -4 25 C-3.24595285 16.55467195 -1.62171958 8.31258777 0 0 Z " fill="#357ED2" transform="translate(351,300)"/>
<path d="M0 0 C0.33 0.66 0.66 1.32 1 2 C-0.12724742 4.51990494 -1.31032506 6.89303683 -2.625 9.3125 C-2.96917969 9.97701172 -3.31335938 10.64152344 -3.66796875 11.32617188 C-5.96007172 15.60166284 -8.40555773 18.7397778 -12 22 C-12 17.87829783 -9.90563418 15.43328695 -7.6875 12.125 C-6.8782531 10.89886833 -6.06964745 9.67231316 -5.26171875 8.4453125 C-4.8754834 7.86168945 -4.48924805 7.27806641 -4.09130859 6.67675781 C-2.66612843 4.48701792 -1.32324042 2.25250635 0 0 Z " fill="#1085E0" transform="translate(232,267)"/>
<path d="M0 0 C1.30826716 3.92480147 0.11647821 6.35186994 -1.25 10.0625 C-1.46785156 10.69994141 -1.68570312 11.33738281 -1.91015625 11.99414062 C-3.18710316 15.53748161 -3.77699318 16.85132878 -7 19 C-6.67422369 11.83292123 -3.34556372 6.23072876 0 0 Z " fill="#2C5395" transform="translate(283,240)"/>
<path d="M0 0 C5.56520011 4.96892867 8.40086472 10.80389124 10 18 C10.125 20.9375 10.125 20.9375 10 23 C8.10595841 20.15893762 7.19874068 17.8954112 6.125 14.6875 C4.94807979 11.33814437 3.80871969 8.39826849 1.75 5.5 C0 3 0 3 0 0 Z " fill="#526385" transform="translate(340,252)"/>
<path d="M0 0 C0.33 0.66 0.66 1.32 1 2 C-0.29296875 4.42578125 -0.29296875 4.42578125 -2.1875 7.3125 C-3.10595703 8.72982422 -3.10595703 8.72982422 -4.04296875 10.17578125 C-5.92918333 12.89780348 -7.81188458 15.51288744 -10 18 C-10.66 18 -11.32 18 -12 18 C-11.52570343 13.73133091 -8.96478822 11.89066852 -6 9 C-5.67 8.01 -5.34 7.02 -5 6 C-4.34 5.67 -3.68 5.34 -3 5 C-2.835 4.34 -2.67 3.68 -2.5 3 C-2.335 2.34 -2.17 1.68 -2 1 C-1.34 0.67 -0.68 0.34 0 0 Z " fill="#40A7E7" transform="translate(344,330)"/>
<path d="M0 0 C0.66 0.33 1.32 0.66 2 1 C-1.77339973 5.95258714 -5.90789714 9.43679155 -11 13 C-11.66 12.67 -12.32 12.34 -13 12 C-8.87675353 7.74790208 -4.48717034 3.86364295 0 0 Z " fill="#41DBEC" transform="translate(182,332)"/>
<path d="M0 0 C1.59494188 3.18988376 0.74137105 5.57828747 0 9 C-2 12.4375 -2 12.4375 -4 15 C-4.33 15 -4.66 15 -5 15 C-5.30017023 10.83513802 -4.45324946 8.34984273 -2.5 4.6875 C-2.0359375 3.80449219 -1.571875 2.92148437 -1.09375 2.01171875 C-0.7328125 1.34785156 -0.371875 0.68398437 0 0 Z " fill="#275CB6" transform="translate(276,254)"/>
<path d="M0 0 C0 0.66 0 1.32 0 2 C-3.55477643 4.97735082 -6.86488289 6.89865026 -11.5 7.3125 C-12.325 7.209375 -13.15 7.10625 -14 7 C-12.5438656 4.08773121 -10.50039336 3.68157936 -7.5625 2.375 C-6.07943359 1.70597656 -6.07943359 1.70597656 -4.56640625 1.0234375 C-2 0 -2 0 0 0 Z " fill="#B9E9F8" transform="translate(323,358)"/>
<path d="M0 0 C0.99 0.33 1.98 0.66 3 1 C3.765625 2.92578125 3.765625 2.92578125 4.25 5.3125 C4.50523437 6.48232422 4.50523437 6.48232422 4.765625 7.67578125 C5.00771617 10.07651867 4.7310448 11.71809588 4 14 C3.32471777 12.42032193 2.66010306 10.83608097 2 9.25 C1.62875 8.36828125 1.2575 7.4865625 0.875 6.578125 C0 4 0 4 0 0 Z " fill="#5A6D8A" transform="translate(161,232)"/>
<path d="M0 0 C0 0.66 0 1.32 0 2 C-1.609375 3.54296875 -1.609375 3.54296875 -3.75 5.1875 C-4.44609375 5.73792969 -5.1421875 6.28835937 -5.859375 6.85546875 C-8 8 -8 8 -10.265625 7.67578125 C-10.83796875 7.45277344 -11.4103125 7.22976562 -12 7 C-10.70982586 6.01886757 -9.41780894 5.04015801 -8.125 4.0625 C-7.04605469 3.24458984 -7.04605469 3.24458984 -5.9453125 2.41015625 C-2.62049861 0 -2.62049861 0 0 0 Z " fill="#BAC3CE" transform="translate(366,154)"/>
<path d="M0 0 C2.79173055 -0.02690104 5.58320348 -0.04679053 8.375 -0.0625 C9.56609375 -0.07506836 9.56609375 -0.07506836 10.78125 -0.08789062 C16.7734375 -0.11328125 16.7734375 -0.11328125 19 1 C19 1.66 19 2.32 19 3 C17.02 3.66 15.04 4.32 13 5 C13.66 3.68 14.32 2.36 15 1 C10.05 1 5.1 1 0 1 C0 0.67 0 0.34 0 0 Z " fill="#4E6382" transform="translate(375,137)"/>
<path d="M0 0 C5.03985731 0.44469329 7.37634988 2.71343362 11 6 C9.234375 6.6796875 9.234375 6.6796875 7 7 C5.078125 5.8203125 5.078125 5.8203125 3.25 4.125 C2.63640625 3.57070313 2.0228125 3.01640625 1.390625 2.4453125 C0 1 0 1 0 0 Z " fill="#7888A0" transform="translate(187,274)"/>
<path d="M0 0 C0.68359375 1.671875 0.68359375 1.671875 1 4 C-0.21484375 6.578125 -0.21484375 6.578125 -1.9375 9.25 C-2.50339844 10.14203125 -3.06929687 11.0340625 -3.65234375 11.953125 C-4.09707031 12.62859375 -4.54179687 13.3040625 -5 14 C-5.68359375 12.328125 -5.68359375 12.328125 -6 10 C-4.78515625 7.421875 -4.78515625 7.421875 -3.0625 4.75 C-2.49660156 3.85796875 -1.93070313 2.9659375 -1.34765625 2.046875 C-0.90292969 1.37140625 -0.45820313 0.6959375 0 0 Z " fill="#1B65AD" transform="translate(230,266)"/>
<path d="M0 0 C3.22466078 4.20607928 4.12460635 6.28385359 4.0625 11.625 C4.05347656 12.62789063 4.04445313 13.63078125 4.03515625 14.6640625 C4.02355469 15.43492187 4.01195312 16.20578125 4 17 C3.67 17 3.34 17 3 17 C2.49453964 14.91798472 1.99583165 12.83432933 1.5 10.75 C1.2215625 9.58984375 0.943125 8.4296875 0.65625 7.234375 C0 4 0 4 0 0 Z " fill="#B7C1D5" transform="translate(351,270)"/>
<path d="M0 0 C0.75 1.625 0.75 1.625 1 4 C-1.08139861 7.85444186 -2.79030081 10.49653601 -7 12 C-6.566875 11.484375 -6.13375 10.96875 -5.6875 10.4375 C-3.60062999 7.42313221 -2.40524483 4.38536255 -1 1 C-0.67 0.67 -0.34 0.34 0 0 Z " fill="#1B71E2" transform="translate(267,269)"/>
<path d="M0 0 C0.33 0 0.66 0 1 0 C1.1799928 5.21979128 0.97094808 9.07262981 -1 14 C-1.33 14 -1.66 14 -2 14 C-2.1799928 8.78020872 -1.97094808 4.92737019 0 0 Z " fill="#75859D" transform="translate(163,189)"/>
<path d="M0 0 C-1.57533086 0.86883706 -3.16064509 1.71959068 -4.75 2.5625 C-5.63171875 3.03816406 -6.5134375 3.51382813 -7.421875 4.00390625 C-10.20701188 5.07998186 -11.26980214 5.06528748 -14 4 C-12.42466914 3.13116294 -10.83935491 2.28040932 -9.25 1.4375 C-8.36828125 0.96183594 -7.4865625 0.48617187 -6.578125 -0.00390625 C-3.79298812 -1.07998186 -2.73019786 -1.06528748 0 0 Z " fill="#919EB1" transform="translate(215,143)"/>
<path d="M0 0 C4.47238653 1.41807378 8.71146306 3.11304374 13 5 C9.86846113 6.3778771 8.71220527 5.90076044 5.375 4.75 C2 3 2 3 0 0 Z " fill="#909DB0" transform="translate(202,283)"/>
<path d="M0 0 C0 3.54404336 -0.60989485 4.10267905 -2.875 6.6875 C-3.40867187 7.31011719 -3.94234375 7.93273437 -4.4921875 8.57421875 C-6 10 -6 10 -8 10 C-6.34908222 5.70761377 -3.26245434 3.1206085 0 0 Z " fill="#147EED" transform="translate(263,275)"/>
<path d="M0 0 C0.66 0.33 1.32 0.66 2 1 C1.33333333 2.33333333 0.66666667 3.66666667 0 5 C-0.4640625 6.0828125 -0.4640625 6.0828125 -0.9375 7.1875 C-2 9 -2 9 -5 10 C-4.34 8.02 -3.68 6.04 -3 4 C-2.34 4 -1.68 4 -1 4 C-0.67 2.68 -0.34 1.36 0 0 Z " fill="#1E72E0" transform="translate(236,258)"/>
<path d="M0 0 C0 3.19610552 -0.54671542 4.41717626 -2 7.1875 C-2.37125 7.90292969 -2.7425 8.61835938 -3.125 9.35546875 C-3.558125 10.16951172 -3.558125 10.16951172 -4 11 C-4.66 11 -5.32 11 -6 11 C-4.74194623 6.49197399 -3.09592835 3.5087188 0 0 Z " fill="#27549C" transform="translate(243,243)"/>
<path d="M0 0 C0 3.93169105 -1.39419615 5.16427228 -4 8 C-4.66 8 -5.32 8 -6 8 C-6.33 8.66 -6.66 9.32 -7 10 C-6.52727227 5.74545047 -4.03562624 3.80795427 -1 1 C-0.67 0.67 -0.34 0.34 0 0 Z " fill="#2CB1E9" transform="translate(210,304)"/>
<path d="M0 0 C2.1875 -0.3125 2.1875 -0.3125 5 0 C7.8125 2.5 7.8125 2.5 10 5 C2.42857143 3.14285714 2.42857143 3.14285714 0 0 Z " fill="#6B758A" transform="translate(317,232)"/>
<path d="M0 0 C0 3 0 3 -2.375 5.625 C-5 8 -5 8 -7 9 C-5.44499019 5.18315774 -2.96404505 2.80804268 0 0 Z " fill="#76879F" transform="translate(306,204)"/>
<path d="M0 0 C0.515625 0.2475 1.03125 0.495 1.5625 0.75 C-4.8375 4.81153846 -4.8375 4.81153846 -7.875 4.5 C-8.390625 4.2525 -8.90625 4.005 -9.4375 3.75 C-3.0375 -0.31153846 -3.0375 -0.31153846 0 0 Z " fill="#A0ABBB" transform="translate(388.4375,142.25)"/>
<path d="M0 0 C0.66 0.33 1.32 0.66 2 1 C-0.65654657 4.73884332 -2.58110387 6.64978174 -7 8 C-5.08864614 4.46399535 -3.37357234 2.21027154 0 0 Z " fill="#6EC7EF" transform="translate(331,348)"/>
<path d="M0 0 C5.75 1.625 5.75 1.625 8 5 C4.62537285 4.45276317 2.91765 3.9451 0 2 C0 1.34 0 0.68 0 0 Z " fill="#CED4DD" transform="translate(196,281)"/>
<path d="M0 0 C0 3 0 3 -2.375 5.625 C-5 8 -5 8 -7 9 C-5.64978174 4.58110387 -3.73884332 2.65654657 0 0 Z " fill="#AFB8C6" transform="translate(178,164)"/>
<path d="M0 0 C1.32 0.33 2.64 0.66 4 1 C1.69 2.65 -0.62 4.3 -3 6 C-3.66 5.67 -4.32 5.34 -5 5 C-2.75 2.4375 -2.75 2.4375 0 0 Z " fill="#44E9EB" transform="translate(153,353)"/>
<path d="M0 0 C2.4375 0.625 2.4375 0.625 5 2 C5.8125 5.125 5.8125 5.125 6 8 C1.125 3.375 1.125 3.375 0 0 Z " fill="#B3B9C4" transform="translate(338,248)"/>
<path d="M0 0 C-6.4 3.07692308 -6.4 3.07692308 -9.4375 2.6875 C-9.953125 2.460625 -10.46875 2.23375 -11 2 C-7.54930647 -0.30046235 -3.95022851 -1.97511426 0 0 Z " fill="#395173" transform="translate(216,145)"/>
</svg>
