<?xml version="1.0" encoding="UTF-8"?>
<svg version="1.1" xmlns="http://www.w3.org/2000/svg" width="597" height="154">
<path d="M0 0 C197.01 0 394.02 0 597 0 C597 50.82 597 101.64 597 154 C399.99 154 202.98 154 0 154 C0 103.18 0 52.36 0 0 Z " fill="#FDFEFE" transform="translate(0,0)"/>
<path d="M0 0 C0.76180069 -0.00014603 1.52360138 -0.00029205 2.30848694 -0.0004425 C4.80277448 0.00024889 7.29698543 0.00800478 9.79125977 0.01586914 C11.53003397 0.01773607 13.2688087 0.01915867 15.00758362 0.02015686 C19.56628899 0.02396039 24.12496209 0.03377205 28.68365479 0.04486084 C33.34256555 0.05512164 38.00148157 0.05966446 42.66040039 0.06469727 C51.78866971 0.07539639 60.91691517 0.09244663 70.04516602 0.11352539 C68.70556515 2.79272713 67.59441919 2.77233155 64.79516602 3.73852539 C54.50429878 7.69881622 45.52178322 14.16005034 37.04516602 21.11352539 C36.23176758 21.72969727 35.41836914 22.34586914 34.58032227 22.98071289 C28.35929389 28.21442859 23.32824114 35.22336107 19.04516602 42.11352539 C19.65102539 42.23727539 20.25688477 42.36102539 20.88110352 42.48852539 C31.24140826 45.03875425 38.32150706 51.03691382 43.88891602 60.03540039 C44.27047852 60.72118164 44.65204102 61.40696289 45.04516602 62.11352539 C45.40610352 62.73743164 45.76704102 63.36133789 46.13891602 64.00415039 C49.57773598 72.0083003 49.15942244 82.73030395 46.48266602 90.86352539 C42.60851702 100.27413553 35.88119011 107.84441966 26.60375977 112.16821289 C11.90833274 117.59766837 -4.53265568 116.86650349 -19.95483398 117.11352539 C-20.92710938 117.13012207 -21.89938477 117.14671875 -22.90112305 117.16381836 C-36.60757379 117.36328342 -50.26827481 116.82012243 -63.95483398 116.11352539 C-63.62483398 115.12352539 -63.29483398 114.13352539 -62.95483398 113.11352539 C-61.21264648 112.26977539 -61.21264648 112.26977539 -59.07983398 111.61352539 C-55.87394034 110.61981666 -54.25818525 109.53333823 -51.95483398 107.11352539 C-51.17108398 106.82477539 -50.38733398 106.53602539 -49.57983398 106.23852539 C-46.91811799 105.09778997 -45.47538381 103.81012584 -43.52124023 101.71508789 C-41.51569547 99.6645309 -39.36354404 97.81447962 -37.20483398 95.92602539 C-30.30289388 89.73594458 -23.87798454 83.61163521 -19.95483398 75.11352539 C-21.04151367 74.94530273 -21.04151367 74.94530273 -22.15014648 74.77368164 C-30.44942597 72.82023006 -37.19762258 67.00119279 -41.95483398 60.11352539 C-47.69477381 50.07981239 -49.88258633 40.35391755 -47.20092773 28.89086914 C-43.34298766 17.89195764 -36.29359508 9.63914197 -25.95483398 4.11352539 C-23.30639648 3.19946289 -23.30639648 3.19946289 -20.57983398 2.48852539 C-19.23791992 2.12887695 -19.23791992 2.12887695 -17.86889648 1.76196289 C-11.90568326 0.43502804 -6.09507485 -0.03111867 0 0 Z " fill="#1391CC" transform="translate(95.954833984375,13.886474609375)"/>
<path d="M0 0 C1.48919238 -0.00591997 2.97837999 -0.0131713 4.46755981 -0.02168274 C7.5793753 -0.03352128 10.69047369 -0.02692788 13.80224609 -0.00756836 C17.76568401 0.01528474 21.72697294 -0.01144038 25.6901989 -0.05263042 C28.76350132 -0.07836433 31.83630035 -0.07558627 34.90967178 -0.06473732 C36.36953811 -0.06326296 37.82944543 -0.07079625 39.28921127 -0.0879879 C48.4426299 -0.1782901 55.4046682 0.70782519 62.6953125 6.69921875 C65.16796875 9.3671875 65.16796875 9.3671875 66.7578125 11.88671875 C67.30566406 12.72589844 67.85351562 13.56507812 68.41796875 14.4296875 C72.17322075 21.10186308 71.51009187 30.22667561 70.6953125 37.69921875 C69.57112353 41.25370834 68.03117363 43.81938997 65.6953125 46.69921875 C65.27636719 47.27929688 64.85742188 47.859375 64.42578125 48.45703125 C60.9963225 52.9643199 57.23092958 55.62352203 51.6953125 56.69921875 C49.50754431 56.81601881 47.31666041 56.87835845 45.12597656 56.90795898 C44.14951172 56.92263466 44.14951172 56.92263466 43.15332031 56.93760681 C41.00587982 56.96744027 38.85850107 56.9889132 36.7109375 57.0078125 C35.97437675 57.01438433 35.23781601 57.02095615 34.47893524 57.02772713 C30.57940083 57.06026907 26.67989314 57.08473159 22.78027344 57.10424805 C19.56372089 57.12204734 16.34804732 57.15685051 13.13183594 57.20678711 C9.23675238 57.26717975 5.34248222 57.29774871 1.44695282 57.30742073 C-0.03138967 57.31594413 -1.50971222 57.33468531 -2.98778534 57.36416435 C-16.93317621 57.62730575 -16.93317621 57.62730575 -22.90255737 52.19396973 C-23.36526031 51.7007019 -23.82796326 51.20743408 -24.3046875 50.69921875 C-24.97242188 50.00957031 -25.64015625 49.31992188 -26.328125 48.609375 C-26.99714844 47.69478516 -26.99714844 47.69478516 -27.6796875 46.76171875 C-28.14117187 46.15457031 -28.60265625 45.54742187 -29.078125 44.921875 C-33.3654292 37.15284287 -33.61282852 27.02006822 -31.83984375 18.453125 C-29.16600401 11.60239951 -24.20094445 5.60007419 -17.95982361 1.78894043 C-12.30325494 -0.53263001 -6.02591325 -0.03558942 0 0 Z " fill="#2D3A54" transform="translate(203.3046875,69.30078125)"/>
<path d="M0 0 C0.76180069 -0.00014603 1.52360138 -0.00029205 2.30848694 -0.0004425 C4.80277448 0.00024889 7.29698543 0.00800478 9.79125977 0.01586914 C11.53003397 0.01773607 13.2688087 0.01915867 15.00758362 0.02015686 C19.56628899 0.02396039 24.12496209 0.03377205 28.68365479 0.04486084 C33.34256555 0.05512164 38.00148157 0.05966446 42.66040039 0.06469727 C51.78866971 0.07539639 60.91691517 0.09244663 70.04516602 0.11352539 C68.70556515 2.79272713 67.59441919 2.77233155 64.79516602 3.73852539 C54.50429878 7.69881622 45.52178322 14.16005034 37.04516602 21.11352539 C36.23176758 21.72969727 35.41836914 22.34586914 34.58032227 22.98071289 C28.35929389 28.21442859 23.32824114 35.22336107 19.04516602 42.11352539 C19.70516602 42.44352539 20.36516602 42.77352539 21.04516602 43.11352539 C20.45219727 43.4705957 19.85922852 43.82766602 19.24829102 44.19555664 C16.35546913 46.713953 15.32084965 49.29888795 13.79516602 52.80102539 C13.27438477 53.98051758 12.75360352 55.16000977 12.21704102 56.37524414 C11.83032227 57.27887695 11.44360352 58.18250977 11.04516602 59.11352539 C2.5871759 50.73955504 2.5871759 50.73955504 1.04516602 46.11352539 C-3.25083557 48.2821009 -5.03060025 50.34839283 -7.25170898 54.58618164 C-7.81760742 55.65030273 -8.38350586 56.71442383 -8.96655273 57.81079102 C-9.82700195 59.47658203 -9.82700195 59.47658203 -10.70483398 61.17602539 C-11.29393555 62.29041992 -11.88303711 63.40481445 -12.48999023 64.55297852 C-14.33975104 68.0590194 -16.18200383 71.56786507 -17.95483398 75.11352539 C-26.33954637 74.74897268 -33.11628964 70.43316561 -38.76733398 64.36352539 C-46.81109293 54.4942325 -48.85453976 44.54918461 -47.95483398 32.11352539 C-45.20347757 20.35254589 -38.44928185 12.12177684 -28.50561523 5.47680664 C-25.87160444 4.06904283 -23.46569554 3.24099932 -20.57983398 2.48852539 C-19.68522461 2.24875977 -18.79061523 2.00899414 -17.86889648 1.76196289 C-11.90568326 0.43502804 -6.09507485 -0.03111867 0 0 Z " fill="#274167" transform="translate(95.954833984375,13.886474609375)"/>
<path d="M0 0 C1.82758598 -0.02893593 1.82758598 -0.02893593 3.6920929 -0.05845642 C9.25206075 -0.11627973 14.81188456 -0.16574888 20.37207031 -0.19628906 C23.30448187 -0.21409772 26.23593093 -0.24891658 29.16796875 -0.29882812 C32.71941517 -0.35919752 36.26997012 -0.38978584 39.82190514 -0.39946175 C41.82223258 -0.41211395 43.82230539 -0.45411977 45.82221985 -0.49668884 C55.9731 -0.4737514 55.9731 -0.4737514 60.28466797 3.12255859 C64.67219453 7.6583501 64.29807893 11.8698119 64.25073242 17.99780273 C63.77998638 23.29853214 61.87348317 25.47969952 57.96557617 29.02124023 C54.19773773 31.25839431 50.60267972 31.34335659 46.2824707 31.38574219 C45.14093536 31.39857742 43.99940002 31.41141266 42.82327271 31.42463684 C41.59406097 31.43202377 40.36484924 31.43941071 39.09838867 31.44702148 C37.19716751 31.4591291 37.19716751 31.4591291 35.25753784 31.47148132 C32.57603307 31.4853101 29.89465072 31.49633054 27.21313477 31.50390625 C23.78776322 31.51497352 20.36304075 31.54938948 16.93789864 31.58907795 C13.65812677 31.6215869 10.37829709 31.62602553 7.09838867 31.63452148 C5.26064377 31.66078362 5.26064377 31.66078362 3.38577271 31.68757629 C-7.23408732 31.66050882 -7.23408732 31.66050882 -12.03442383 27.20874023 C-16.00989586 21.90811087 -15.6934129 15.56755683 -15.03442383 9.20874023 C-13.88783382 5.81694468 -12.90848325 3.41955518 -10.03442383 1.20874023 C-6.69002395 0.11280125 -3.50290996 0.05190679 0 0 Z " fill="#FBFBFC" transform="translate(198.034423828125,82.791259765625)"/>
<path d="M0 0 C0.90109497 -0.00686325 1.80218994 -0.0137265 2.73059082 -0.02079773 C5.71451496 -0.03912551 8.69791632 -0.03521964 11.68188477 -0.02954102 C13.75309928 -0.03410004 15.82431229 -0.03940477 17.89552307 -0.04542542 C22.23916769 -0.05436834 26.58262856 -0.05192004 30.92626953 -0.04199219 C36.49629183 -0.03050278 42.06568017 -0.05070779 47.63561916 -0.07990932 C51.91384418 -0.09824434 56.19191654 -0.09798421 60.47017097 -0.0922718 C62.52390494 -0.09211825 64.57764904 -0.09819067 66.63134575 -0.11056328 C69.50203227 -0.12541989 72.37153825 -0.11483532 75.2421875 -0.09765625 C76.09271194 -0.10732422 76.94323639 -0.11699219 77.8195343 -0.12695312 C83.56720051 -0.05482755 83.56720051 -0.05482755 86.71351624 2.27915955 C88.18579102 4.40405273 88.18579102 4.40405273 88.68579102 6.90405273 C87.99574262 10.35429473 87.02843309 11.31332829 84.18579102 13.40405273 C81.13531504 13.95997969 78.13691413 13.86939285 75.04516602 13.79467773 C74.16298401 13.78901794 73.280802 13.78335815 72.37188721 13.77752686 C69.55929888 13.75516864 66.74799307 13.70497406 63.93579102 13.65405273 C62.02695527 13.63398698 60.11809952 13.61573634 58.20922852 13.59936523 C53.53425657 13.55530574 48.8602411 13.48628257 44.18579102 13.40405273 C44.20150146 15.25135986 44.20150146 15.25135986 44.2175293 17.13598633 C44.2536619 21.69438788 44.27666687 26.25277672 44.2956543 30.8112793 C44.30572729 32.78623583 44.31938623 34.76117739 44.33666992 36.73608398 C44.36086141 39.57075692 44.37226093 42.40523311 44.38110352 45.23999023 C44.39142609 46.12649261 44.40174866 47.012995 44.41238403 47.92636108 C44.41278171 50.08691225 44.30851636 52.24698992 44.18579102 54.40405273 C42.18579102 56.40405273 42.18579102 56.40405273 38.74829102 56.71655273 C35.18579102 56.40405273 35.18579102 56.40405273 33.48442078 55.14103699 C31.89175262 53.01076123 31.82086258 51.93796619 31.84521484 49.29980469 C31.84555473 48.06886833 31.84555473 48.06886833 31.84590149 46.81306458 C31.86138535 45.93172348 31.8768692 45.05038239 31.89282227 44.14233398 C31.89706711 43.23654099 31.90131195 42.33074799 31.90568542 41.39750671 C31.92248253 38.5035534 31.96013651 35.61029567 31.99829102 32.71655273 C32.01333652 30.75497425 32.02702516 28.79338485 32.03930664 26.83178711 C32.07238944 22.02227418 32.1241788 17.2132814 32.18579102 12.40405273 C30.92395996 12.41452637 29.66212891 12.425 28.36206055 12.43579102 C23.69184188 12.47192173 19.02163562 12.4949279 14.35131836 12.51391602 C12.32785975 12.52398944 10.30441574 12.53764869 8.28100586 12.55493164 C5.37683512 12.57912121 2.47285641 12.59052222 -0.43139648 12.59936523 C-1.79396072 12.61484909 -1.79396072 12.61484909 -3.18405151 12.63064575 C-4.02477203 12.63079681 -4.86549255 12.63094788 -5.73168945 12.63110352 C-6.84421585 12.63776535 -6.84421585 12.63776535 -7.97921753 12.64456177 C-9.81420898 12.40405273 -9.81420898 12.40405273 -11.81420898 10.40405273 C-12.38197737 4.15860054 -12.38197737 4.15860054 -10.53620815 1.70562649 C-7.4911699 -0.59596688 -3.67246575 -0.01939144 0 0 Z " fill="#2E3B55" transform="translate(478.814208984375,69.595947265625)"/>
<path d="M0 0 C0.91245483 -0.00525696 1.82490967 -0.01051392 2.76501465 -0.01593018 C5.7862247 -0.02915217 8.80690943 -0.02038425 11.828125 -0.01025391 C13.92415468 -0.01227401 16.02018367 -0.01518491 18.11621094 -0.01895142 C22.51113571 -0.02337775 26.9058777 -0.01693367 31.30078125 -0.00292969 C36.94031321 0.01416227 42.57941687 0.00432276 48.21893311 -0.01364708 C52.54772176 -0.02447649 56.87640851 -0.02104243 61.2052002 -0.0132637 C63.28487193 -0.01125937 65.36455286 -0.01372912 67.44421387 -0.02070236 C70.34847598 -0.02830291 73.25204001 -0.01673213 76.15625 0 C77.01972046 -0.00607269 77.88319092 -0.01214539 78.77282715 -0.0184021 C84.63529732 0.04431728 84.63529732 0.04431728 86.79901123 1.72449303 C88.77143546 4.28994393 88.46946126 6.25749349 88.078125 9.38818359 C87.06364441 11.05439758 87.06364441 11.05439758 85.078125 12.38818359 C82.28802069 12.66874499 79.72383289 12.76712818 76.93481445 12.72875977 C76.10532288 12.72919785 75.2758313 12.72963593 74.42120361 12.73008728 C71.67769891 12.72799618 68.93480428 12.7046502 66.19140625 12.68115234 C64.28997634 12.67555753 62.3885421 12.67128689 60.48710632 12.66828918 C55.48106967 12.65683141 50.47529389 12.62735618 45.46936035 12.59417725 C40.36177093 12.56349647 35.25413938 12.54978811 30.14648438 12.53466797 C20.12358326 12.5024874 10.10087582 12.45127975 0.078125 12.38818359 C0.08859863 12.94803955 0.09907227 13.50789551 0.10986328 14.0847168 C0.15145826 16.62332666 0.17746185 19.16186479 0.203125 21.70068359 C0.22826172 23.02229492 0.22826172 23.02229492 0.25390625 24.37060547 C0.26035156 25.21816406 0.26679688 26.06572266 0.2734375 26.93896484 C0.28391113 27.71925049 0.29438477 28.49953613 0.30517578 29.3034668 C0.078125 31.38818359 0.078125 31.38818359 -1.921875 34.38818359 C-5.359375 34.82568359 -5.359375 34.82568359 -8.921875 34.38818359 C-11.25562372 32.13330042 -11.87541117 30.7335063 -12.31005859 27.50317383 C-12.31344238 26.41206299 -12.31682617 25.32095215 -12.3203125 24.19677734 C-12.32417969 23.00503906 -12.32804687 21.81330078 -12.33203125 20.58544922 C-12.32042969 19.34472656 -12.30882812 18.10400391 -12.296875 16.82568359 C-12.31427734 14.95879883 -12.31427734 14.95879883 -12.33203125 13.05419922 C-12.32816406 11.86375 -12.32429688 10.67330078 -12.3203125 9.44677734 C-12.31692871 8.35679443 -12.31354492 7.26681152 -12.31005859 6.14379883 C-11.33244113 -0.79605543 -5.81812718 -0.04091825 0 0 Z " fill="#293651" transform="translate(330.921875,91.61181640625)"/>
<path d="M0 0 C0.93035568 -0.00700928 1.86071136 -0.01401855 2.81925964 -0.02124023 C5.90072303 -0.03887361 8.98127109 -0.02717743 12.06274414 -0.01367188 C14.20121945 -0.01636548 16.33969356 -0.02024679 18.47816467 -0.02526855 C22.96310063 -0.03117104 27.4477182 -0.02257717 31.93261719 -0.00390625 C37.68426108 0.01886972 43.43515786 0.00577318 49.18677425 -0.01819611 C53.60398494 -0.03264542 58.02101832 -0.02805178 62.43823433 -0.01768494 C64.55894623 -0.01501455 66.67967418 -0.01829833 68.80036736 -0.02760315 C71.76448101 -0.03775272 74.72738294 -0.0222889 77.69140625 0 C79.00927124 -0.01214539 79.00927124 -0.01214539 80.35375977 -0.02453613 C86.28724918 0.05819816 86.28724918 0.05819816 89.45533752 2.39367676 C90.91040039 4.51757812 90.91040039 4.51757812 91.41040039 7.01757812 C90.72060532 10.46655349 89.74789436 11.42219193 86.91040039 13.51757812 C83.87114384 14.11333357 80.87195992 14.05364182 77.78320312 14.01928711 C76.86084869 14.02469009 75.93849426 14.03009308 74.9881897 14.03565979 C71.939798 14.04816598 68.89234716 14.03164455 65.84399414 14.01367188 C63.72697398 14.01382681 61.60995354 14.01531479 59.49293518 14.01808167 C55.05684873 14.01946646 50.62108528 14.0068928 46.18505859 13.98413086 C40.4928508 13.95572886 34.80117912 13.95848726 29.10893154 13.97122097 C24.73809716 13.97816814 20.36738718 13.97040014 15.99656868 13.95796394 C13.8973647 13.95344131 11.7981474 13.9531197 9.69894218 13.95702934 C6.76841614 13.95993255 3.83863514 13.94347775 0.90820312 13.92163086 C-0.3986721 13.92838333 -0.3986721 13.92838333 -1.73194885 13.93527222 C-7.65536427 13.86172309 -7.65536427 13.86172309 -9.78118801 12.17694187 C-11.74526188 9.68604911 -11.96172214 7.65057614 -12.08959961 4.51757812 C-9.7568648 -0.93267278 -5.15478148 -0.04739704 0 0 Z " fill="#323F58" transform="translate(331.089599609375,69.482421875)"/>
<path d="M0 0 C3.03852705 1.40976705 5.5939595 3.08870228 8.25 5.125 C8.95640625 5.66382812 9.6628125 6.20265625 10.390625 6.7578125 C10.92171875 7.16773437 11.4528125 7.57765625 12 8 C11.92647157 11.08819397 11.62286468 13.2670156 9.5859375 15.6640625 C3.43470397 21.16494535 -1.92488818 22.27845213 -10 22 C-11.15811981 19.16529977 -11.05503177 18.13699811 -9.890625 15.23828125 C-9.34921875 14.27277344 -8.8078125 13.30726562 -8.25 12.3125 C-7.71890625 11.33925781 -7.1878125 10.36601563 -6.640625 9.36328125 C-5 7 -5 7 -2 6 C-0.77479736 2.99152582 -0.77479736 2.99152582 0 0 Z " fill="#1585F6" transform="translate(89,69)"/>
<path d="M0 0 C0.25394531 0.56976563 0.50789063 1.13953125 0.76953125 1.7265625 C2.14210007 4.26254679 3.80311052 6.19629411 5.6875 8.375 C8.96532847 12.54927007 8.96532847 12.54927007 9.25 16.25 C7.72529055 19.60436079 5.76159032 21.59245972 3 24 C3.33 22.02 3.66 20.04 4 18 C3.42765625 17.73445313 2.8553125 17.46890625 2.265625 17.1953125 C-0.1076012 15.94323109 -2.12213286 14.5063648 -4.25 12.875 C-5.30960937 12.06675781 -5.30960937 12.06675781 -6.390625 11.2421875 C-6.92171875 10.83226563 -7.4528125 10.42234375 -8 10 C-8.2165625 10.928125 -8.2165625 10.928125 -8.4375 11.875 C-9 14 -9 14 -10 16 C-10.66 15.67 -11.32 15.34 -12 15 C-6.21867882 3.10933941 -6.21867882 3.10933941 0 0 Z " fill="#2A61B9" transform="translate(97,59)"/>
<path d="M0 0 C-2.04547964 5.8353277 -4.05553501 11.55273977 -7 17 C-15.38356164 8.84931507 -15.38356164 8.84931507 -17 4 C-17.99 4 -18.98 4 -20 4 C-14.86804459 -1.8928447 -7.09956495 -1.29082999 0 0 Z " fill="#31538A" transform="translate(114,56)"/>
<path d="M0 0 C6.09796608 2.07330847 9.1638618 4.87109727 13 10 C12.01 12.31 11.02 14.62 10 17 C8.75453595 14.50907189 9.2232422 13.58919267 10 11 C9.42765625 10.73445313 8.8553125 10.46890625 8.265625 10.1953125 C5.8923988 8.94323109 3.87786714 7.5063648 1.75 5.875 C0.69039063 5.06675781 0.69039063 5.06675781 -0.390625 4.2421875 C-0.92171875 3.83226563 -1.4528125 3.42234375 -2 3 C-2.2165625 3.928125 -2.2165625 3.928125 -2.4375 4.875 C-3 7 -3 7 -4 9 C-4.66 8.67 -5.32 8.34 -6 8 C-5.01 6.02 -4.02 4.04 -3 2 C-2.01 2 -1.02 2 0 2 C0 1.34 0 0.68 0 0 Z " fill="#2769D1" transform="translate(91,66)"/>
<path d="M0 0 C0.25394531 0.56589844 0.50789063 1.13179687 0.76953125 1.71484375 C2.60935826 5.13166534 5.14554066 7.91844812 7.63671875 10.87890625 C8.08660156 11.57886719 8.53648438 12.27882813 9 13 C8.67 13.99 8.34 14.98 8 16 C4.40365256 12.50640535 1.16548033 8.88901869 -2 5 C-3.32 5.33 -4.64 5.66 -6 6 C-4.95125002 3.37812506 -4.35068687 2.20628639 -1.875 0.75 C-1.25625 0.5025 -0.6375 0.255 0 0 Z " fill="#2E5CA7" transform="translate(97,59)"/>
</svg>
